<?xml version="1.0" standalone="no"?> <!DOCTYPE svg PUBLIC "-//W3C//DTD SVG 20010904//EN" "http://www.w3.org/TR/2001/REC-SVG-20010904/DTD/svg10.dtd"> <svg version="1.0" xmlns="http://www.w3.org/2000/svg" width="309.000000pt" height="295.000000pt" viewBox="0 0 309.000000 295.000000" preserveAspectRatio="xMidYMid meet"> <g transform="translate(0.000000,295.000000) scale(0.100000,-0.100000)" fill="#6db6bd" stroke="none"> <path d="M1453 2710 c-213 -38 -362 -182 -413 -400 -14 -58 -18 -182 -7 -240 6 -32 3 -37 -26 -55 -44 -28 -59 -62 -47 -107 11 -38 42 -58 90 -58 41 0 39 -25 -2 -39 -18 -6 -42 -21 -55 -33 -48 -45 -16 -131 52 -144 36 -6 39 -11 29 -38 -4 -11 -19 -16 -49 -16 -31 0 -49 -6 -69 -25 -36 -33 -34 -70 5 -106 32 -29 71 -39 66 -16 -1 6 5 11 13 9 8 -2 20 5 27 14 10 13 13 14 13 3 -1 -20 -30 -58 -30 -38 0 9 -6 7 -18 -8 -12 -17 -21 -20 -32 -13 -21 14 -73 12 -93 -2 -9 -7 -19 -27 -23 -44 -5 -24 1 -39 28 -75 l34 -44 -40 -59 c-56 -82 -156 -181 -202 -202 -63 -27 -168 -23 -236 8 -31 15 -66 24 -76 21 -52 -13 -54 -111 -4 -217 74 -155 218 -248 436 -282 l106 -17 0 -38 c0 -28 8 -47 28 -70 26 -29 35 -32 122 -41 132 -14 413 -6 434 11 20 17 21 70 1 118 -20 46 -20 45 18 41 30 -3 32 -6 37 -51 12 -100 63 -117 355 -117 260 0 274 6 254 102 -15 68 -70 120 -152 144 -65 18 -65 18 -48 40 9 12 23 40 31 63 l13 41 269 0 c299 0 322 4 358 62 18 30 20 50 20 231 0 196 0 198 23 206 45 18 68 56 73 118 6 72 -16 121 -63 142 l-33 15 0 102 c0 122 -7 144 -57 178 l-38 26 -376 0 -377 0 -11 46 c-7 26 -11 47 -9 48 2 1 29 7 62 14 32 6 106 26 163 44 136 41 186 82 210 170 13 45 23 63 43 73 15 8 35 30 45 50 15 32 15 45 5 103 -22 130 -87 229 -184 280 -47 25 -64 27 -216 33 -101 4 -185 13 -217 22 -67 20 -194 28 -260 17z m263 -71 c53 -14 104 -19 206 -19 130 0 137 -1 194 -30 33 -16 71 -42 85 -57 48 -53 95 -204 78 -251 -4 -11 -27 -31 -51 -45 -126 -71 -397 -92 -539 -41 -40 15 -46 20 -37 32 10 12 1 13 -63 7 -82 -8 -149 10 -149 39 0 24 -38 19 -45 -4 -14 -44 47 -80 133 -80 47 0 72 -6 115 -29 111 -58 348 -64 501 -11 31 10 56 17 56 14 0 -39 -71 -121 -93 -107 -5 3 -7 1 -3 -5 7 -12 -73 -40 -227 -77 -149 -36 -369 -46 -449 -20 -74 23 -122 64 -159 136 -16 32 -31 59 -33 59 -14 0 29 -131 53 -160 68 -85 123 -102 316 -98 l144 3 6 -25 c3 -14 8 -33 11 -42 4 -13 0 -18 -16 -18 -34 0 -79 -28 -100 -63 -17 -27 -20 -51 -20 -164 l0 -133 -29 0 c-16 0 -36 -2 -43 -5 -9 -4 -42 21 -82 60 -37 36 -71 65 -77 65 -6 0 -8 4 -5 8 3 5 -2 9 -10 9 -10 0 -8 -8 10 -26 13 -14 34 -46 46 -70 40 -80 58 -91 148 -91 65 0 84 -4 106 -21 14 -11 26 -27 26 -35 0 -8 4 -13 9 -10 4 3 17 -1 27 -9 18 -13 18 -14 2 -20 -10 -4 -15 -12 -11 -19 4 -6 -1 -5 -10 3 -9 7 -17 20 -17 28 0 10 -6 13 -16 9 -9 -3 -27 -6 -41 -6 -18 0 -24 -4 -19 -15 3 -8 1 -15 -3 -15 -5 0 -12 -7 -15 -16 -3 -8 -2 -12 4 -9 6 3 10 2 10 -4 0 -5 -6 -11 -12 -13 -7 -3 -2 -7 11 -11 18 -4 21 -2 17 10 -16 41 26 72 53 39 18 -21 3 -43 -46 -67 -39 -19 -56 -21 -128 -17 -154 10 -233 69 -266 199 -18 70 -33 62 -25 -13 18 -158 111 -230 298 -232 l88 -1 0 -169 c0 -152 2 -172 20 -201 25 -40 64 -55 143 -55 50 0 58 2 48 14 -14 17 -1 28 19 16 7 -4 24 -4 36 0 15 6 26 5 30 -2 4 -7 3 -8 -4 -4 -7 4 -24 -5 -39 -21 -14 -15 -23 -22 -19 -15 13 22 -11 13 -56 -21 -69 -52 -88 -62 -188 -102 -135 -54 -156 -58 -201 -34 -21 10 -52 19 -69 19 -37 0 -37 4 -4 38 14 15 38 52 53 82 22 47 27 71 29 160 3 88 0 114 -18 162 -30 80 -97 152 -166 177 -73 28 -117 27 -49 0 56 -23 98 -57 88 -72 -3 -6 -1 -7 5 -3 15 9 60 -60 78 -120 18 -60 18 -177 0 -237 -8 -25 -27 -68 -44 -96 -17 -27 -28 -52 -24 -55 3 -4 7 -17 9 -29 3 -19 -2 -23 -21 -22 -13 0 -28 4 -33 9 -4 5 -4 7 2 4 13 -7 47 30 35 37 -6 4 -24 -4 -41 -16 -18 -12 -47 -28 -66 -34 -33 -11 -30 -12 56 -19 140 -10 199 -37 227 -103 21 -49 18 -53 -36 -53 -36 0 -50 4 -50 14 0 20 -37 63 -69 79 -29 14 -57 8 -73 -17 -4 -6 -13 -5 -25 4 -17 14 -17 14 0 -6 19 -23 14 -35 -11 -28 -11 4 -10 1 3 -7 11 -7 23 -17 27 -23 4 -6 8 1 8 15 0 38 32 64 60 49 20 -11 40 -47 40 -73 0 -9 -43 -11 -167 -9 -189 4 -193 5 -193 77 0 33 -6 47 -31 71 -41 39 -85 118 -100 179 -17 73 -26 74 -21 4 5 -61 4 -62 -19 -56 -13 3 -50 9 -81 12 -32 4 -55 11 -52 17 3 5 -5 6 -20 2 -17 -4 -26 -2 -26 6 0 6 -4 8 -10 5 -6 -3 -10 -3 -10 2 0 4 -20 16 -45 26 -26 11 -42 23 -38 30 4 6 0 8 -10 4 -10 -3 -17 -2 -17 3 0 5 -10 14 -21 21 -17 9 -20 8 -16 -3 2 -7 10 -12 16 -10 7 1 10 -2 6 -8 -8 -13 73 -64 145 -91 37 -15 80 -22 132 -23 l76 -1 12 -40 c7 -22 17 -46 22 -53 15 -18 -14 -16 -104 7 -201 52 -340 181 -364 340 -7 41 -6 44 12 36 106 -44 120 -47 195 -43 118 7 200 55 285 168 128 172 166 246 206 396 41 159 44 331 9 499 -31 144 -32 304 -2 387 25 72 89 167 138 205 141 109 280 133 469 82z m-426 -20 c0 -5 -4 -8 -9 -4 -5 3 -12 -4 -16 -15 -3 -11 -11 -20 -16 -20 -19 0 -25 -4 -45 -31 -11 -16 -23 -26 -26 -23 -7 6 44 60 54 56 4 -1 15 9 24 23 17 26 34 33 34 14z m-133 -124 c-10 -7 -18 -17 -17 -21 1 -5 -4 -10 -12 -12 -11 -3 -11 -2 0 6 8 5 13 12 13 16 -2 10 23 35 29 29 3 -2 -3 -11 -13 -18z m-100 -317 c-2 -13 -4 -5 -4 17 -1 22 1 32 4 23 2 -10 2 -28 0 -40z m1133 18 c0 -2 -7 -7 -16 -10 -8 -3 -12 -2 -9 4 6 10 25 14 25 6z m31 -18 c11 -21 11 -22 -4 -9 -10 7 -17 17 -17 22 0 15 9 10 21 -13z m-74 -4 c-3 -3 -12 -4 -19 -1 -8 3 -5 6 6 6 11 1 17 -2 13 -5z m-1071 -146 c1 -13 8 -46 16 -75 11 -39 12 -53 3 -57 -8 -3 -12 8 -13 31 -2 50 -11 73 -28 73 -8 0 -14 2 -14 5 0 3 32 45 35 45 0 0 1 -10 1 -22z m-12 -100 c8 -43 -4 -49 -42 -22 -28 19 -28 32 0 61 25 27 31 21 42 -39z m316 22 c8 -5 11 -10 5 -10 -5 0 -17 5 -25 10 -8 5 -10 10 -5 10 6 0 17 -5 25 -10z m497 -7 c-3 -3 -23 -7 -44 -9 -29 -2 -32 -1 -13 4 31 10 64 13 57 5z m-93 -22 c3 -5 -2 -15 -11 -22 -10 -8 -14 -9 -10 -2 4 7 0 16 -10 22 -16 9 -16 10 4 11 12 0 24 -4 27 -9z m-136 -8 c-10 -2 -26 -2 -35 0 -10 3 -2 5 17 5 19 0 27 -2 18 -5z m-634 -32 c-2 -3 -12 3 -22 13 -16 17 -16 18 5 5 12 -7 20 -15 17 -18z m93 -11 c-2 -24 -10 -25 -26 -6 -9 11 -9 15 1 19 23 9 27 7 25 -13z m8 -70 c1 -16 -1 -18 -13 -7 -13 11 -14 9 -2 -13 16 -29 21 -62 8 -54 -4 3 -8 14 -8 24 0 10 -4 22 -10 25 -16 10 -12 35 6 35 9 0 12 5 8 13 -4 6 -3 9 1 4 5 -4 9 -16 10 -27z m688 3 c-5 -12 -3 -14 7 -8 8 5 11 4 7 -3 -4 -5 -17 -8 -29 -4 -16 4 -19 2 -13 -8 6 -9 4 -11 -5 -5 -10 6 -9 11 6 22 10 8 18 19 16 24 -1 6 2 8 7 4 6 -3 7 -13 4 -22z m-83 -33 c-8 -5 -19 -10 -25 -10 -5 0 -3 5 5 10 8 5 20 10 25 10 6 0 3 -5 -5 -10z m-707 -15 c-3 -9 -8 -14 -10 -11 -3 3 -2 9 2 15 9 16 15 13 8 -4z m72 -39 c6 -51 6 -51 -29 -35 -28 13 -38 32 -29 55 5 14 43 36 51 29 1 -1 5 -23 7 -49z m1510 19 c23 -23 25 -31 25 -131 0 -99 -2 -108 -25 -136 -23 -28 -25 -36 -22 -114 2 -70 7 -87 25 -107 21 -22 22 -31 22 -221 0 -196 0 -197 -25 -221 l-24 -25 -420 0 -420 0 -28 24 -28 24 -1 172 -1 171 33 14 c34 14 64 59 64 95 0 20 4 20 385 20 356 0 385 1 394 18 9 16 -12 17 -382 14 l-392 -2 -13 37 c-12 37 -17 296 -6 315 3 4 183 8 400 8 l394 0 0 -127 c1 -98 3 -124 12 -109 13 23 21 226 10 244 -12 19 -831 19 -843 0 -12 -19 -11 -212 1 -244 13 -34 9 -38 -24 -22 -17 7 -30 8 -34 2 -11 -15 -45 -17 -40 -2 3 7 12 12 22 10 10 -2 16 4 17 15 0 10 1 71 2 136 2 117 3 119 30 143 l28 24 420 0 420 0 24 -25z m-1479 -62 c0 -10 -5 -21 -11 -25 -6 -5 -6 -8 1 -8 6 0 11 -7 11 -15 0 -11 -4 -12 -14 -4 -16 14 -17 41 -1 57 15 15 16 15 14 -5z m-16 -98 c-9 -11 -9 -15 -1 -15 7 0 9 -5 4 -12 -4 -7 -8 -15 -9 -18 -4 -21 -23 -52 -23 -39 -1 8 4 20 10 26 8 8 8 13 0 18 -8 4 -6 15 6 35 9 16 19 27 21 25 3 -3 -1 -11 -8 -20z m-45 -77 c-10 -43 -10 -44 -40 -24 -22 14 -29 15 -43 4 -9 -7 -14 -8 -10 -4 4 5 2 16 -5 25 -10 14 -10 14 4 3 14 -10 17 -9 22 8 4 15 13 20 42 20 36 0 36 0 30 -32z m1625 -31 c0 -9 -2 -9 -8 1 -5 7 -15 11 -23 9 -8 -2 -11 -2 -6 0 4 3 4 9 1 15 -4 6 2 5 15 -1 11 -7 21 -17 21 -24z m-1679 -14 c13 -16 12 -17 -3 -4 -17 13 -22 21 -14 21 2 0 10 -8 17 -17z m1710 0 c13 -16 12 -17 -3 -4 -17 13 -22 21 -14 21 2 0 10 -8 17 -17z m-81 3 c0 -2 -7 -7 -16 -10 -8 -3 -12 -2 -9 4 6 10 25 14 25 6z m63 -23 c15 -17 20 -49 18 -105 -1 -31 -39 -62 -64 -52 -38 14 -27 74 14 74 29 0 23 14 -11 27 -33 12 -38 33 -14 57 20 21 37 20 57 -1z m-1723 -47 c0 -2 -7 -7 -16 -10 -8 -3 -12 -2 -9 4 6 10 25 14 25 6z m90 0 c0 -17 -14 -35 -23 -29 -6 3 -7 1 -3 -5 8 -13 -30 -92 -44 -92 -6 0 -10 5 -10 11 0 5 5 7 10 4 9 -6 14 8 11 28 0 4 4 7 9 7 14 0 12 43 -2 59 -9 10 -9 12 -1 7 6 -3 14 -2 18 4 6 10 35 15 35 6z m-130 -16 c0 -5 -5 -10 -11 -10 -5 0 -7 5 -4 10 3 6 8 10 11 10 2 0 4 -4 4 -10z m1690 2 c0 -5 -6 -16 -13 -26 -12 -16 -14 -16 -14 -2 0 9 5 16 11 16 6 0 4 5 -4 10 -13 8 -12 10 3 10 9 0 17 -4 17 -8z m-1633 -18 c21 -6 22 -8 7 -36 -17 -33 -33 -32 -51 2 -18 37 -5 47 44 34z m-47 -68 c0 -12 -5 -7 -19 24 -11 24 -11 24 3 6 9 -11 16 -24 16 -30z m1675 -5 c3 -5 2 -12 -3 -15 -5 -3 -9 1 -9 9 0 17 3 19 12 6z m-1640 -21 c4 -11 11 -18 16 -15 5 3 6 -1 2 -10 -5 -13 -8 -14 -15 -3 -23 34 -28 48 -19 48 5 0 13 -9 16 -20z m346 3 c13 -16 12 -17 -3 -4 -17 13 -22 21 -14 21 2 0 10 -8 17 -17z m1338 -25 c-5 -10 -13 -18 -16 -18 -3 0 -3 3 0 7 4 3 3 11 -3 17 -6 8 -3 12 10 12 15 0 16 -4 9 -18z m-925 -2 c-3 -8 -13 -17 -22 -21 -13 -5 -13 -2 3 15 21 24 26 25 19 6z m-367 -12 c-3 -3 -12 -4 -19 -1 -8 3 -5 6 6 6 11 1 17 -2 13 -5z m296 -57 c-4 -21 -8 -25 -14 -15 -12 18 -11 41 1 33 6 -3 10 -1 10 6 0 7 2 10 4 8 2 -2 2 -17 -1 -32z m-713 9 c0 -2 -7 -7 -16 -10 -8 -3 -12 -2 -9 4 6 10 25 14 25 6z m-33 -41 c0 -8 -4 -15 -9 -15 -10 0 -11 14 -1 23 9 10 10 9 10 -8z m-102 -125 c-10 -11 -22 -20 -28 -20 -5 0 1 9 14 20 31 25 37 25 14 0z m-376 -46 c3 -4 -1 -4 -9 -2 -24 8 -52 -11 -45 -30 5 -13 3 -14 -5 -6 -17 17 8 53 33 48 11 -2 22 -6 26 -10z m178 -40 c-3 -3 -12 -4 -19 -1 -8 3 -5 6 6 6 11 1 17 -2 13 -5z m-207 -98 c0 -12 -5 -7 -19 24 -11 24 -11 24 3 6 9 -11 16 -24 16 -30z m2228 -1 c-6 -14 -13 -23 -15 -21 -5 5 15 46 22 46 3 0 -1 -11 -7 -25z m-948 -35 c12 -16 19 -30 16 -30 -2 0 -14 14 -26 30 -12 17 -19 30 -16 30 2 0 14 -13 26 -30z m-1266 4 c3 -8 2 -12 -4 -9 -6 3 -10 10 -10 16 0 14 7 11 14 -7z m977 -7 c-10 -9 -11 -8 -5 6 3 10 9 15 12 12 3 -3 0 -11 -7 -18z m618 -44 c-18 -13 -25 -13 -46 -2 -14 7 -20 15 -14 17 7 2 18 -1 25 -8 11 -8 16 -8 22 1 5 8 3 9 -6 4 -8 -5 -11 -4 -7 3 4 5 16 8 27 5 21 -6 21 -6 -1 -20z m-1550 -25 c20 -33 8 -27 -24 10 -22 26 -24 32 -9 22 12 -7 27 -22 33 -32z m1278 36 c-3 -3 -12 -4 -19 -1 -8 3 -5 6 6 6 11 1 17 -2 13 -5z m-371 -32 c-17 -16 -18 -16 -5 5 7 12 15 20 18 17 3 -2 -3 -12 -13 -22z m594 1 c0 -3 -11 -25 -24 -48 -26 -44 -85 -89 -133 -102 -21 -5 -1 -10 82 -19 165 -18 219 -48 232 -128 l5 -33 -45 -1 c-42 -2 -46 0 -56 29 -12 36 0 69 27 70 9 0 -3 7 -28 14 -24 8 -46 12 -48 10 -2 -2 6 -6 17 -10 12 -3 21 -14 21 -24 0 -17 -2 -18 -35 -2 -34 16 -61 49 -30 37 8 -3 15 -1 15 3 0 5 -29 11 -65 13 -66 3 -78 -10 -12 -14 43 -3 47 -10 12 -26 -14 -6 -25 -18 -25 -26 0 -8 -6 -16 -12 -18 -9 -3 -8 -9 5 -22 16 -17 17 -16 17 6 0 73 87 60 106 -16 l7 -28 -178 6 c-98 3 -182 9 -186 13 -5 5 -10 29 -11 55 -2 25 -10 53 -17 62 -12 14 -11 16 5 16 31 0 205 103 248 146 30 31 49 42 74 43 17 1 32 -2 32 -6z m-130 -37 c0 -2 -8 -10 -17 -17 -16 -13 -17 -12 -4 4 13 16 21 21 21 13z m127 -31 c0 -8 -4 -12 -9 -9 -5 3 -6 10 -3 15 9 13 12 11 12 -6z m-1406 -22 c13 -16 12 -17 -3 -4 -10 7 -18 15 -18 17 0 8 8 3 21 -13z m1386 -8 c0 -8 -5 -15 -10 -15 -5 0 -4 -7 3 -15 16 -20 5 -32 -14 -16 -9 7 -15 8 -18 2 -2 -7 -8 -7 -18 -1 -13 8 -12 10 3 10 11 0 15 4 11 12 -4 7 -3 8 4 4 6 -3 16 3 22 14 13 24 17 25 17 5z m-1307 -31 c0 -8 -19 -13 -24 -6 -3 5 1 9 9 9 8 0 15 -2 15 -3z m50 -29 c14 -8 21 -14 15 -14 -5 0 -21 6 -35 14 -14 8 -20 14 -15 14 6 0 21 -6 35 -14z m903 -15 c-3 -11 -12 -20 -21 -20 -13 0 -12 3 3 20 10 11 19 20 21 20 1 0 0 -9 -3 -20z m-218 0 c3 -6 -1 -7 -9 -4 -18 7 -21 14 -7 14 6 0 13 -4 16 -10z m-469 -9 c-6 -9 22 -26 37 -22 5 1 6 -3 2 -9 -4 -6 -16 -3 -33 8 -14 9 -28 16 -30 14 -2 -2 -7 0 -10 4 -4 4 -1 4 6 0 6 -4 12 -2 12 3 0 6 5 11 11 11 5 0 8 -4 5 -9z m536 -19 c9 -7 21 -12 25 -9 5 3 10 -6 11 -21 1 -22 0 -24 -8 -10 -6 9 -25 29 -43 43 -17 15 -25 24 -17 19 8 -4 23 -14 32 -22z m63 -141 c-3 -6 -11 -11 -16 -11 -5 0 -4 6 3 14 14 16 24 13 13 -3z m646 -4 c-10 -9 -11 -8 -5 6 3 10 9 15 12 12 3 -3 0 -11 -7 -18z m-772 -6 c9 -6 10 -11 2 -15 -6 -4 -11 -2 -11 4 0 6 -4 8 -10 5 -5 -3 -10 -1 -10 4 0 13 10 14 29 2z m438 -7 c-3 -3 -12 -4 -19 -1 -8 3 -5 6 6 6 11 1 17 -2 13 -5z"/> <path d="M1395 2600 c-83 -29 -170 -84 -159 -101 3 -5 -1 -7 -8 -4 -7 3 -19 -4 -26 -16 -12 -18 -12 -23 0 -31 10 -8 9 -9 -4 -4 -18 5 -43 -24 -66 -77 -14 -33 -7 -54 12 -38 7 6 16 7 21 3 4 -4 2 3 -4 16 -10 18 -10 27 0 38 6 8 8 14 3 14 -4 0 1 6 12 14 23 18 32 12 14 -9 -11 -13 -11 -16 0 -13 17 4 42 67 33 82 -4 6 1 7 13 2 10 -4 15 -4 12 0 -12 11 11 43 42 59 16 9 31 15 32 14 2 -1 22 8 46 20 24 12 60 24 80 27 69 9 163 11 168 2 3 -4 15 -8 28 -8 12 0 26 -3 29 -7 9 -9 35 -11 207 -18 151 -5 215 -18 203 -38 -4 -7 1 -6 10 2 11 9 17 10 17 2 0 -6 6 -11 13 -11 21 -1 59 -39 51 -51 -5 -8 -3 -9 6 -4 10 6 12 4 7 -9 -4 -10 -3 -15 3 -11 12 7 33 -32 24 -47 -4 -6 -3 -8 3 -5 6 4 18 -14 27 -41 16 -47 17 -47 12 -9 -11 87 -74 173 -156 210 -37 17 -75 22 -210 28 -105 5 -183 13 -214 23 -66 22 -214 19 -281 -4z m-253 -262 c-7 -7 -12 -8 -12 -2 0 14 12 26 19 19 2 -3 -1 -11 -7 -17z"/> <path d="M1645 2530 c-3 -6 1 -7 9 -4 18 7 21 14 7 14 -6 0 -13 -4 -16 -10z"/> <path d="M1530 2507 c-51 -26 -61 -93 -18 -129 29 -25 70 -22 102 7 64 60 -6 163 -84 122z m12 -19 c-8 -8 -8 -15 -1 -24 7 -8 7 -14 -1 -19 -5 -3 -10 -12 -10 -18 0 -7 4 -6 10 3 9 13 13 12 28 -6 10 -11 24 -19 32 -17 13 4 13 3 0 -6 -8 -5 -18 -7 -22 -5 -4 3 -8 0 -8 -6 0 -15 -42 -2 -57 18 -7 9 -13 18 -13 21 0 11 40 71 47 71 4 0 2 -5 -5 -12z m72 -11 c8 -13 7 -20 -4 -27 -8 -5 -19 -10 -23 -10 -12 0 -20 28 -13 46 7 19 25 15 40 -9z"/> <path d="M2120 2506 c0 -2 7 -9 15 -16 13 -11 14 -10 9 4 -5 14 -24 23 -24 12z"/> <path d="M2050 2475 c0 -31 52 -91 69 -81 26 16 -18 105 -51 106 -13 0 -18 -8 -18 -25z m47 -21 c-3 -3 -12 -4 -19 -1 -8 3 -5 6 6 6 11 1 17 -2 13 -5z m8 -32 c-3 -3 -11 0 -18 7 -9 10 -8 11 6 5 10 -3 15 -9 12 -12z"/> <path d="M2003 2465 c0 -8 4 -12 9 -9 5 3 6 10 3 15 -9 13 -12 11 -12 -6z"/> <path d="M1189 2370 c-6 -50 -8 -81 -12 -188 -3 -67 -1 -125 3 -127 5 -3 8 36 7 87 -1 51 1 126 5 166 3 39 4 72 2 72 -2 0 -5 -4 -5 -10z"/> <path d="M1447 2339 c7 -7 15 -10 18 -7 3 3 -2 9 -12 12 -14 6 -15 5 -6 -5z"/> <path d="M1490 2266 c0 -2 7 -7 16 -10 8 -3 12 -2 9 4 -6 10 -25 14 -25 6z"/> <path d="M1517 2163 c-4 -3 -2 -13 3 -23 5 -10 7 -20 5 -24 -3 -3 -2 -4 2 -1 9 7 32 -15 29 -28 -1 -7 -1 -9 1 -6 2 3 21 -3 43 -13 85 -42 200 -56 355 -43 139 12 115 20 -57 20 -153 0 -192 3 -238 19 -62 21 -120 60 -120 81 0 16 -14 27 -23 18z"/> <path d="M1526 2083 c-6 -14 -5 -15 5 -6 7 7 10 15 7 18 -3 3 -9 -2 -12 -12z"/> <path d="M1193 1995 c0 -22 2 -30 4 -17 2 12 2 30 0 40 -3 9 -5 -1 -4 -23z"/> <path d="M1284 1933 c3 -38 38 -143 48 -143 4 0 5 -7 1 -16 -5 -13 -8 -13 -15 -2 -8 10 -9 10 -5 -2 2 -8 10 -14 16 -12 6 1 19 -15 27 -35 9 -21 20 -46 25 -55 5 -10 9 -25 9 -33 0 -10 5 -13 12 -9 7 5 9 2 5 -9 -3 -9 2 -26 13 -39 l19 -23 -8 35 c-10 42 -18 61 -64 161 -20 42 -43 103 -52 135 -20 67 -34 89 -31 47z"/> <path d="M1196 1925 c9 -40 25 -56 18 -19 -3 16 -10 34 -15 39 -7 7 -8 0 -3 -20z"/> <path d="M1350 1885 c13 -14 27 -25 32 -25 5 0 18 -9 30 -20 12 -11 33 -19 47 -19 19 1 21 3 8 6 -21 5 -84 45 -108 68 -26 25 -34 17 -9 -10z"/> <path d="M1210 1854 c0 -10 5 -26 10 -34 8 -11 9 -7 4 15 -8 37 -14 45 -14 19z"/> <path d="M1522 1806 c21 -8 49 -21 64 -31 14 -9 28 -14 32 -11 3 3 -1 6 -8 6 -7 0 -10 3 -7 7 9 8 -69 43 -97 43 -14 -1 -9 -5 16 -14z"/> <path d="M1221 1785 c-1 -11 -4 -31 -6 -45 l-6 -25 11 25 c6 13 9 33 7 45 -4 19 -4 19 -6 0z"/> <path d="M1191 1547 c0 -16 -5 -26 -9 -23 -4 2 -8 -14 -9 -37 l-2 -42 15 43 c9 24 13 53 11 65 -3 18 -5 16 -6 -6z"/> <path d="M1527 1499 c7 -7 15 -10 18 -7 3 3 -2 9 -12 12 -14 6 -15 5 -6 -5z"/> <path d="M1140 1384 c0 -8 5 -12 10 -9 6 3 10 10 10 16 0 5 -4 9 -10 9 -5 0 -10 -7 -10 -16z"/> <path d="M1632 1375 c-7 -9 -8 -15 -2 -15 5 0 10 -5 10 -11 0 -5 -5 -7 -12 -3 -7 4 -8 3 -4 -4 14 -23 33 -12 32 18 -1 33 -5 36 -24 15z"/> <path d="M1123 1345 c-3 -9 -3 -18 -1 -21 3 -3 8 4 11 16 6 23 -1 27 -10 5z"/> <path d="M1733 1315 c0 -7 6 -11 14 -8 7 3 13 6 13 8 0 2 -6 5 -13 8 -8 3 -14 -1 -14 -8z"/> <path d="M1103 1290 c-3 -11 -10 -17 -16 -13 -6 3 -7 1 -3 -6 4 -6 11 -9 15 -6 10 5 22 45 14 45 -3 0 -7 -9 -10 -20z"/> <path d="M1225 1290 c-3 -5 -1 -10 4 -10 6 0 11 5 11 10 0 6 -2 10 -4 10 -3 0 -8 -4 -11 -10z"/> <path d="M1370 1266 c0 -2 7 -7 16 -10 8 -3 12 -2 9 4 -6 10 -25 14 -25 6z"/> <path d="M1240 1241 c0 -6 4 -13 10 -16 6 -3 7 1 4 9 -7 18 -14 21 -14 7z"/> <path d="M1040 1185 c-7 -8 -16 -12 -21 -9 -5 3 -6 -1 -3 -9 3 -8 -3 -23 -14 -33 -11 -11 -23 -30 -26 -44 -6 -23 -6 -24 5 -5 7 11 28 41 46 68 32 45 39 64 13 32z"/> <path d="M1214 1171 c7 -11 46 -35 46 -28 0 3 -12 12 -26 22 -15 9 -23 12 -20 6z"/> <path d="M1169 1146 c9 -11 7 -15 -11 -21 -13 -4 -25 -7 -28 -7 -3 0 -7 -10 -8 -23 -3 -44 66 -71 91 -35 14 20 47 19 47 -2 0 -5 5 -6 12 -2 8 5 9 2 5 -10 -4 -10 -3 -15 3 -11 12 7 44 -61 35 -74 -2 -5 2 -14 10 -21 8 -7 15 -8 15 -3 0 20 -24 79 -42 105 -11 16 -16 33 -12 39 5 8 3 9 -5 5 -8 -5 -31 8 -61 33 -48 41 -73 54 -51 27z m39 -58 c3 -15 -4 -18 -32 -18 -34 0 -47 15 -29 34 13 13 58 1 61 -16z"/> <path d="M1387 1153 c-4 -3 -7 -18 -7 -32 l1 -26 14 25 c8 14 14 28 15 33 0 9 -14 9 -23 0z"/> <path d="M1416 1088 c3 -5 10 -6 15 -3 13 9 11 12 -6 12 -8 0 -12 -4 -9 -9z"/> <path d="M955 996 c-9 -73 14 -216 35 -216 5 0 2 17 -7 38 -12 25 -17 67 -17 135 -1 53 -2 97 -3 97 -1 0 -5 -24 -8 -54z"/> <path d="M1560 989 c-14 -6 -44 -8 -68 -5 -27 4 -41 2 -37 -4 12 -19 145 -9 145 11 0 11 -8 11 -40 -2z"/> <path d="M789 943 c-1 -5 -1 -12 0 -16 1 -5 -4 -7 -11 -5 -7 3 -27 -6 -46 -18 -41 -28 -131 -48 -175 -39 -17 4 -49 16 -69 26 -21 11 -38 15 -38 9 0 -5 5 -10 11 -10 5 0 7 -4 4 -10 -3 -6 1 -7 9 -4 11 4 19 -3 26 -21 6 -15 8 -30 5 -34 -2 -5 7 -6 21 -3 14 2 28 11 31 18 3 8 19 14 37 14 18 0 55 7 81 15 27 8 53 11 58 8 6 -3 7 -1 4 4 -12 20 25 24 47 6 l21 -18 -20 24 c-15 18 -16 23 -4 19 11 -4 15 1 15 18 0 23 -5 33 -7 17z m-239 -93 c0 -5 -9 -10 -20 -10 -11 0 -20 5 -20 10 0 6 9 10 20 10 11 0 20 -4 20 -10z"/> <path d="M1464 874 c18 -37 90 -111 117 -119 10 -4 19 -11 19 -16 0 -5 8 -9 18 -9 10 0 24 -6 31 -12 10 -11 11 -10 6 4 -4 9 -23 23 -44 31 -34 14 -67 43 -136 122 l-26 30 15 -31z"/> <path d="M956 777 c3 -10 9 -15 12 -12 3 3 0 11 -7 18 -10 9 -11 8 -5 -6z"/> <path d="M1317 772 c3 -7 9 -10 12 -5 3 4 10 11 15 15 4 4 -1 6 -12 5 -12 -1 -18 -6 -15 -15z"/> <path d="M543 765 c0 -8 4 -12 9 -9 5 3 6 10 3 15 -9 13 -12 11 -12 -6z"/> <path d="M1290 771 c0 -6 4 -13 10 -16 6 -3 7 1 4 9 -7 18 -14 21 -14 7z"/> <path d="M1847 749 c7 -7 15 -10 18 -7 3 3 -2 9 -12 12 -14 6 -15 5 -6 -5z"/> <path d="M980 747 c0 -2 13 -13 28 -24 21 -15 33 -18 43 -11 12 8 12 9 -1 5 -8 -2 -23 5 -34 15 -17 16 -36 24 -36 15z"/> <path d="M1669 722 c15 -27 30 -36 27 -16 -1 9 -10 21 -20 26 -16 9 -16 7 -7 -10z"/> <path d="M648 713 c7 -3 16 -2 19 1 4 3 -2 6 -13 5 -11 0 -14 -3 -6 -6z"/> <path d="M1243 710 c-13 -5 -23 -11 -23 -14 0 -7 37 1 57 13 23 13 -2 14 -34 1z"/> <path d="M1080 700 c8 -5 20 -10 25 -10 6 0 3 5 -5 10 -8 5 -19 10 -25 10 -5 0 -3 -5 5 -10z"/> <path d="M1750 700 c12 -8 12 -10 1 -10 -8 0 -12 -3 -8 -6 3 -3 16 1 29 10 l22 16 -29 0 c-23 0 -27 -3 -15 -10z"/> <path d="M870 693 c0 -6 9 -22 21 -37 11 -14 17 -26 13 -26 -4 0 2 -9 14 -20 12 -12 22 -24 22 -28 1 -4 13 -21 28 -39 23 -26 28 -29 28 -13 0 10 -2 17 -4 15 -5 -5 -40 29 -36 35 1 3 -18 32 -42 64 -24 33 -44 55 -44 49z"/> <path d="M1128 693 c7 -3 16 -2 19 1 4 3 -2 6 -13 5 -11 0 -14 -3 -6 -6z"/> <path d="M1178 693 c7 -3 16 -2 19 1 4 3 -2 6 -13 5 -11 0 -14 -3 -6 -6z"/> <path d="M1030 600 c8 -5 20 -10 25 -10 6 0 3 5 -5 10 -8 5 -19 10 -25 10 -5 0 -3 -5 5 -10z"/> <path d="M1090 586 c0 -2 9 -6 20 -9 11 -3 18 -1 14 4 -5 9 -34 13 -34 5z"/> <path d="M1019 513 c-13 -16 -12 -17 4 -4 16 13 21 21 13 21 -2 0 -10 -8 -17 -17z"/> <path d="M1160 521 c-38 -6 -30 -8 53 -12 55 -2 101 -1 104 4 2 4 -6 7 -19 7 -13 0 -39 2 -58 4 -19 2 -55 1 -80 -3z"/> <path d="M1335 500 c4 -7 15 -10 24 -7 14 3 17 -1 14 -22 -4 -22 -3 -24 7 -8 6 9 19 17 28 18 12 0 9 4 -8 11 -39 17 -73 21 -65 8z"/> <path d="M1088 443 c7 -3 16 -2 19 1 4 3 -2 6 -13 5 -11 0 -14 -3 -6 -6z"/> <path d="M1128 433 c6 -2 18 -2 25 0 6 3 1 5 -13 5 -14 0 -19 -2 -12 -5z"/> <path d="M2120 1512 l0 -147 45 3 45 4 0 144 0 144 -45 0 -45 0 0 -148z m68 11 c2 -86 -1 -113 -10 -113 -9 0 -8 -3 2 -10 11 -7 6 -10 -20 -9 -19 0 -30 2 -25 5 6 2 9 45 8 105 -2 98 7 136 31 136 7 0 12 -39 14 -114z"/> <path d="M1997 1533 c-2 -5 -5 -43 -5 -85 l-1 -78 49 0 50 0 0 85 0 85 -44 0 c-25 0 -47 -3 -49 -7z m65 -74 c2 -43 -1 -63 -9 -66 -30 -12 -38 4 -35 66 3 51 7 61 22 61 15 0 19 -10 22 -61z"/> <path d="M2235 1529 c-3 -4 -5 -42 -4 -83 l1 -76 49 0 49 0 0 85 0 84 -45 -1 c-25 0 -48 -4 -50 -9z m65 -24 c7 -8 10 -34 8 -62 -3 -44 -6 -48 -28 -48 -18 0 -25 5 -24 18 1 9 2 37 3 62 1 47 17 59 41 30z"/> <path d="M1870 1420 l0 -50 45 0 45 0 0 50 0 50 -45 0 -45 0 0 -50z m72 -5 c-2 -13 -10 -26 -16 -28 -22 -8 -34 7 -29 34 4 21 9 25 27 22 18 -4 22 -10 18 -28z"/> <path d="M2354 1434 c3 -9 6 -27 6 -40 0 -22 4 -24 45 -24 l45 0 0 40 0 40 -51 0 c-43 0 -50 -3 -45 -16z m79 -24 c3 -11 -1 -21 -10 -24 -8 -3 -11 -1 -8 5 4 6 -3 7 -20 3 -25 -6 -26 -5 -15 13 16 25 47 27 53 3z"/> <path d="M2551 1374 c0 -11 3 -14 6 -6 3 7 2 16 -1 19 -3 4 -6 -2 -5 -13z"/> <path d="M1943 1241 c0 -14 -6 -27 -12 -29 -7 -2 -8 -9 -1 -22 6 -12 7 -28 0 -44 -8 -21 -7 -24 7 -19 11 4 14 3 9 -6 -6 -8 1 -10 26 -6 23 4 29 2 18 -4 -8 -5 -17 -8 -21 -5 -12 7 -26 -20 -33 -63 -3 -25 -2 -44 4 -48 6 -4 7 -11 4 -17 -4 -6 1 -8 12 -4 11 3 26 1 34 -5 12 -8 11 -9 -5 -5 -26 7 -59 -18 -52 -39 4 -9 1 -15 -7 -15 -8 0 -17 7 -20 16 -9 23 -8 26 7 18 9 -6 9 -4 -1 8 -7 9 -22 15 -33 13 -11 -2 -17 0 -13 6 3 6 9 8 12 5 3 -3 11 -1 19 5 9 9 13 8 13 0 0 -6 5 -11 11 -11 6 0 7 5 2 13 -4 6 -8 17 -9 22 -1 6 -5 18 -9 28 -6 14 -3 16 11 11 14 -4 15 -3 6 4 -8 5 -19 20 -26 33 -7 13 -18 23 -24 21 -7 -1 -12 3 -12 8 0 13 32 9 43 -5 5 -5 5 0 2 13 -3 12 -2 22 3 22 12 0 4 81 -9 97 -7 7 -31 11 -65 9 -76 -4 -80 -16 -6 -16 l62 0 0 -45 0 -45 -60 0 -60 0 -1 43 c0 31 -2 37 -8 22 -5 -11 -7 -23 -5 -27 3 -4 -1 -10 -6 -13 -19 -12 20 -45 52 -45 15 0 28 -4 28 -9 0 -5 -12 -8 -27 -7 -17 2 -33 -3 -40 -13 -15 -19 -17 -87 -3 -96 6 -4 8 -11 5 -16 -3 -5 2 -6 12 -2 14 5 14 2 -4 -16 -15 -14 -23 -34 -23 -54 0 -18 -6 -39 -12 -46 -7 -7 -8 -11 -3 -10 6 2 24 -4 40 -13 33 -17 99 -16 121 3 7 6 19 7 25 3 8 -5 9 -3 3 7 -14 24 -15 49 0 49 8 0 14 -6 13 -12 -1 -43 4 -60 17 -55 8 3 17 1 20 -6 3 -9 5 -9 5 0 1 8 10 9 30 3 46 -13 68 9 66 64 -1 24 -7 51 -13 59 -9 11 -8 18 8 32 11 10 17 22 13 28 -7 12 -15 71 -13 102 1 11 2 39 3 62 1 24 6 39 12 35 5 -3 4 1 -2 10 -7 8 -9 19 -5 23 4 5 1 5 -5 1 -7 -4 -13 -3 -13 1 0 12 -42 14 -55 3 -7 -6 -20 -4 -36 4 -22 11 -24 10 -26 -13z m117 -56 l0 -45 -55 0 -55 0 0 45 0 45 55 0 55 0 0 -45z m-10 -73 c0 -5 -7 -9 -15 -9 -8 0 -15 4 -15 9 0 4 7 8 15 8 8 0 15 -4 15 -8z m-165 -72 l0 -45 -55 0 -55 0 -3 33 c-6 56 2 63 60 60 l53 -3 0 -45z m175 0 l0 -50 -55 0 -55 0 0 50 0 50 55 0 55 0 0 -50z m-25 -78 c-3 -3 -11 0 -18 7 -9 10 -8 11 6 5 10 -3 15 -9 12 -12z m-143 -57 l-4 -55 -59 0 -59 0 0 50 0 49 63 4 c34 2 62 4 62 5 0 1 -2 -23 -3 -53z m168 -5 l0 -50 -55 0 -55 0 0 50 0 50 55 0 55 0 0 -50z"/> <path d="M2144 1256 c5 -13 2 -17 -8 -13 -36 14 -58 -81 -28 -116 16 -17 15 -20 -2 -32 -10 -8 -15 -18 -11 -24 3 -6 0 -11 -7 -11 -10 0 -10 -2 1 -9 7 -5 10 -14 6 -20 -4 -7 1 -24 11 -38 16 -25 16 -27 -3 -43 -14 -11 -18 -22 -13 -35 3 -11 5 -30 4 -42 -1 -13 3 -23 8 -23 5 0 6 -5 2 -12 -4 -7 -3 -8 4 -4 7 4 12 3 12 -2 0 -5 24 -7 53 -4 56 5 79 22 73 56 -2 12 1 27 6 34 7 8 7 12 -1 12 -7 0 -10 4 -7 9 4 5 -6 14 -21 19 -16 6 -21 11 -12 11 9 1 19 8 23 16 3 9 12 12 23 9 17 -5 17 -5 1 6 -18 11 -25 50 -9 50 5 0 14 -7 21 -15 10 -12 10 -15 -1 -15 -9 -1 -8 -4 4 -11 14 -8 15 -14 7 -24 -8 -10 0 -12 43 -10 30 1 59 5 66 9 19 12 13 84 -9 106 -24 24 -30 25 -56 5 -19 -15 -19 -15 1 -10 11 3 7 -1 -10 -9 -37 -18 -61 -20 -71 -4 -5 8 -2 9 9 5 10 -3 17 -3 17 1 0 12 -60 32 -76 25 -8 -3 -14 -1 -14 4 0 5 10 9 21 10 25 2 39 14 42 34 2 8 6 19 10 26 4 6 3 15 -3 18 -8 5 -7 11 1 21 9 11 8 14 -5 14 -10 0 -16 8 -16 23 0 12 -4 17 -8 11 -10 -15 -42 -25 -42 -13 0 6 -5 7 -11 3 -6 -3 -16 0 -21 7 -7 11 -8 9 -4 -5z m86 -71 l0 -45 -55 0 -55 0 0 45 0 45 55 0 55 0 0 -45z m-67 -72 c-7 -2 -19 -2 -25 0 -7 3 -2 5 12 5 14 0 19 -2 13 -5z m203 -21 c16 -10 5 -72 -12 -72 -8 0 -14 -7 -14 -16 0 -10 -7 -14 -22 -12 -18 2 -23 10 -23 33 0 26 4 30 28 33 23 3 28 8 24 23 -5 20 1 24 19 11z m-141 -52 l0 -45 -52 -3 -53 -3 0 51 0 51 53 -3 52 -3 0 -45z m163 -32 c-3 -7 -13 -15 -24 -17 -16 -3 -17 -1 -5 13 16 19 34 21 29 4z m-205 -45 c-7 -2 -19 -2 -25 0 -7 3 -2 5 12 5 14 0 19 -2 13 -5z m45 -65 l3 -48 -55 0 -56 0 0 51 0 50 53 -3 52 -3 3 -47z"/> <path d="M2310 1024 c0 -17 22 -14 28 4 2 7 -3 12 -12 12 -9 0 -16 -7 -16 -16z"/> <path d="M2150 1046 c0 -2 8 -10 18 -17 15 -13 16 -12 3 4 -13 16 -21 21 -21 13z"/> <path d="M2489 1268 c0 -2 -2 -13 -3 -26 -2 -12 -12 -33 -24 -45 -12 -13 -22 -29 -22 -36 0 -8 18 6 39 30 21 24 43 41 47 36 4 -4 -8 -23 -26 -42 -26 -26 -30 -35 -17 -35 9 0 17 5 17 10 0 6 7 10 15 10 8 0 15 -5 15 -11 0 -5 5 -7 10 -4 6 3 10 1 10 -5 0 -6 -10 -8 -26 -4 -18 5 -25 3 -21 -3 5 -7 -5 -9 -27 -6 -22 3 -35 0 -38 -9 -4 -10 6 -12 44 -9 34 2 48 0 44 -7 -4 -6 -21 -9 -39 -7 -41 6 -67 -3 -67 -21 0 -9 -5 -12 -12 -8 -10 6 -10 4 0 -7 6 -7 12 -24 12 -38 0 -30 8 -43 35 -60 12 -8 14 -11 4 -8 -20 6 -36 -23 -42 -75 -4 -34 -2 -38 27 -47 58 -17 136 -6 121 19 -8 12 -8 132 -1 177 4 25 3 44 -4 48 -6 3 -7 11 -4 17 4 7 2 8 -4 4 -7 -4 -12 -2 -12 3 0 6 5 11 10 11 14 0 12 82 -3 101 -7 9 -21 19 -32 21 -11 2 -19 10 -17 16 2 10 -6 18 -9 10z m61 -83 c0 -8 -4 -15 -10 -15 -5 0 -10 7 -10 15 0 8 5 15 10 15 6 0 10 -7 10 -15z m-5 -145 l0 -45 -52 -3 -53 -3 0 51 0 51 53 -3 52 -3 0 -45z m0 -70 c3 -5 1 -10 -4 -10 -6 0 -11 5 -11 10 0 6 2 10 4 10 3 0 8 -4 11 -10z m5 -70 l0 -50 -55 0 -55 0 0 50 0 50 55 0 55 0 0 -50z"/> <path d="M2460 900 c0 -5 5 -10 11 -10 5 0 7 5 4 10 -3 6 -8 10 -11 10 -2 0 -4 -4 -4 -10z"/> <path d="M2316 1241 c5 -10 1 -11 -14 -7 -11 4 -23 2 -27 -3 -4 -7 1 -8 12 -4 16 6 16 5 4 -10 -7 -9 -18 -14 -25 -10 -6 3 -3 -3 8 -15 10 -11 16 -27 13 -34 -10 -30 10 -43 60 -40 l50 4 2 50 c1 33 -2 48 -8 43 -6 -3 -11 -1 -11 4 0 6 -6 11 -14 11 -8 0 -16 3 -19 8 -2 4 -2 1 -1 -5 5 -18 -6 -16 -23 5 -8 9 -11 11 -7 3z m4 -31 c0 -5 7 -10 15 -10 8 0 15 5 15 10 0 6 5 10 10 10 18 0 10 -17 -22 -49 -38 -37 -57 -41 -34 -7 10 15 12 27 6 31 -13 8 -13 25 0 25 6 0 10 -4 10 -10z m55 -41 c-5 -14 -4 -19 4 -15 7 5 9 1 5 -9 -6 -15 -8 -15 -22 -2 -12 13 -12 18 -1 31 19 21 22 20 14 -5z"/> <path d="M2415 1161 c-3 -5 -2 -12 3 -15 5 -3 9 1 9 9 0 17 -3 19 -12 6z"/> <path d="M2277 1099 c7 -7 15 -10 18 -7 3 3 -2 9 -12 12 -14 6 -15 5 -6 -5z"/> <path d="M2291 948 c-1 -10 -6 -18 -12 -18 -5 0 -7 5 -3 12 4 7 3 8 -5 4 -6 -4 -9 -11 -6 -16 3 -5 1 -11 -4 -14 -5 -4 -8 -14 -6 -24 2 -9 4 -20 4 -24 1 -12 31 -9 31 2 0 6 20 10 45 10 33 0 45 -4 45 -15 0 -18 -12 -19 -28 -3 -10 10 -15 10 -21 -1 -7 -11 -9 -11 -14 0 -4 10 -6 10 -6 2 -1 -7 -9 -13 -18 -13 -14 0 -15 -2 -5 -9 8 -4 28 -7 45 -6 18 2 40 3 50 4 13 1 17 10 17 44 0 39 -3 44 -35 59 -19 8 -32 11 -29 7 3 -5 -4 -9 -15 -9 -10 0 -22 6 -24 13 -3 7 -6 5 -6 -5z m39 -28 c0 -5 -9 -10 -21 -10 -11 0 -17 5 -14 10 3 6 13 10 21 10 8 0 14 -4 14 -10z m40 0 c0 -5 -7 -10 -16 -10 -8 0 -12 5 -9 10 3 6 10 10 16 10 5 0 9 -4 9 -10z m-90 -31 c0 -5 -4 -9 -8 -9 -5 0 -9 7 -9 15 0 8 4 12 9 9 4 -3 8 -9 8 -15z m105 11 c-3 -5 -27 -9 -53 -8 l-47 1 50 7 c28 4 51 8 53 8 2 1 0 -2 -3 -8z"/> <path d="M2680 1404 c0 -14 4 -23 9 -20 5 3 7 15 4 26 -7 28 -13 25 -13 -6z"/> <path d="M2680 1325 c0 -8 4 -15 10 -15 5 0 7 7 4 15 -4 8 -8 15 -10 15 -2 0 -4 -7 -4 -15z"/> <path d="M1768 453 c7 -3 16 -2 19 1 4 3 -2 6 -13 5 -11 0 -14 -3 -6 -6z"/> <path d="M1808 443 c6 -2 18 -2 25 0 6 3 1 5 -13 5 -14 0 -19 -2 -12 -5z"/> <path d="M889 1573 c-13 -16 -12 -17 4 -4 9 7 17 15 17 17 0 8 -8 3 -21 -13z"/> <path d="M783 412 c-6 -4 17 -7 52 -7 34 0 58 3 52 7 -16 10 -89 10 -104 0z"/> <path d="M590 400 c-55 -7 -55 -7 -10 -7 25 -1 68 2 95 7 47 7 48 7 10 7 -22 0 -65 -3 -95 -7z"/> <path d="M2216 392 c-3 -4 8 -6 24 -4 16 2 43 -3 60 -11 32 -17 114 -12 88 4 -20 13 -60 11 -52 -2 4 -7 1 -10 -7 -7 -8 3 -13 10 -12 15 2 12 -93 17 -101 5z"/> <path d="M470 380 c0 -5 8 -10 18 -11 9 0 26 -3 37 -5 93 -21 350 -41 358 -28 3 5 -45 10 -107 12 -135 4 -240 18 -244 32 -5 13 -62 13 -62 0z"/> <path d="M2193 347 c-5 -9 107 1 117 10 2 2 -22 3 -54 1 -32 -2 -60 -7 -63 -11z"/> <path d="M920 342 c0 -7 3 -13 8 -13 33 -6 51 -5 46 3 -3 5 -12 7 -19 4 -7 -2 -18 1 -24 7 -8 8 -11 8 -11 -1z"/> <path d="M1560 318 c0 -5 32 -8 72 -8 39 0 69 2 67 4 -8 8 -139 11 -139 4z"/> <path d="M1028 313 c7 -3 16 -2 19 1 4 3 -2 6 -13 5 -11 0 -14 -3 -6 -6z"/> <path d="M1728 313 c6 -2 18 -2 25 0 6 3 1 5 -13 5 -14 0 -19 -2 -12 -5z"/> <path d="M1783 313 c9 -2 23 -2 30 0 6 3 -1 5 -18 5 -16 0 -22 -2 -12 -5z"/> </g> </svg>